<svg xmlns="http://www.w3.org/2000/svg">
	<symbol viewBox="0 0 75 45">
		<path d="M36.9 5.2c.4-.4.9-.4 1.3 0l34.2 39.3c.6.7 1.6.7 2.2-.1.6-.7.6-1.9 0-2.6L38.6.5C38-.2 37-.2 36.4.5L.5 41.7c-.3.4-.5.9-.5 1.4 0 .5.1.9.4 1.3.6.8 1.6.8 2.3.1L36.9 5.2z" />
	</symbol>
	<symbol viewBox="0 0 120 35">
		<path d="M35.3 17.5L23.9 34.7 12.5 17.5 23.9.3l11.4 17.2z" style="opacity: 0.6"/>
		<path d="M28 14.5l-4.1 20.2L6.9 23 11 2.8l17 11.7z" style="opacity: 0.6"/>
		<path d="M40.8 23.1l-17 11.6-4.1-20.2 17-11.7 4.1 20.3z" style="opacity: 0.6"/>
		<path d="M46.6 23.1V10.4h6.8c.7 0 1.4.1 2 .4.6.2 1.1.6 1.5 1 .4.4.8.8 1 1.3.2.5.4 1 .4 1.4s-.1 1.1-.3 1.5c-.2.5-.6 1-1 1.3s-.9.7-1.5 1c-.6.2-1.2.4-1.9.4h-5.3v4.5h-1.7zm1.6-5.8h5.2c.5 0 .9-.1 1.3-.2s.7-.4 1-.6c.3-.2.5-.6.6-1 .2-.4.2-.7.2-1.1 0-.4-.1-.7-.3-1.1-.2-.4-.4-.7-.7-1-.3-.2-.7-.5-1.1-.6-.4-.1-.8-.2-1.3-.2H48v5.7h.2zm14.1 8.6h.7c.3 0 .5 0 .7-.1.2-.1.3-.2.5-.4s.3-.5.5-.8c.2-.4.5-1 .8-1.5l-5.2-9.4h1.6l4.5 8.2 4.1-8.2H72l-6.2 12c-.2.4-.4.6-.8 1-.4.3-.9.3-1.6.3h-.9v-1.1h-.2zM81 22.6c-.1 0-.2.1-.4.1-.2.1-.4.1-.6.2-.2.1-.5.1-.8.1-.3 0-.6.1-.9.1-.3 0-.7 0-1-.1-.3-.1-.6-.2-.8-.4-.2-.1-.4-.4-.6-.6-.1-.2-.2-.5-.2-.8v-6.7H74v-1h1.7v-3.2h1.6v3.2H80v1h-2.8v6.3c0 .4.2.6.5.7.3.1.6.2 1 .2s.8 0 1.2-.1l.6-.2.5 1.2zm7.9.6c-.9 0-1.7-.1-2.4-.4-.7-.2-1.4-.6-1.9-1.1-.5-.5-1-1-1.3-1.5-.3-.6-.5-1.2-.5-1.9s.2-1.3.5-1.9c.3-.6.7-1.1 1.2-1.5.5-.5 1.2-.8 1.9-1.1.7-.2 1.5-.4 2.4-.4s1.7.1 2.4.4c.7.2 1.4.6 1.9 1.1.5.5.9 1 1.2 1.5.3.6.4 1.2.4 1.8v.4H84.4c0 .5.2 1 .4 1.4.3.5.6.8 1 1.1.4.4.9.6 1.4.7.5.1 1.1.2 1.7.2.4 0 .8 0 1.2-.1s.7-.2 1.1-.4c.3-.1.6-.4.9-.5.3-.2.5-.5.6-.7l1.4.2c-.2.4-.4.7-.8 1-.3.2-.7.5-1.2.7-.4.2-.9.4-1.5.5-.6.5-1.2.5-1.7.5zm4.4-5.4c0-.5-.2-1-.4-1.4s-.6-.7-1-1.1c-.4-.4-.8-.5-1.4-.7-.5-.1-1.1-.2-1.7-.2-.6 0-1.1.1-1.7.2-.5.1-1 .4-1.4.7-.4.4-.7.7-.9 1.1-.2.5-.4.8-.4 1.3h9v.1zm13.5 5.3l-4.4-4.8-2.6 1.9v2.9h-1.6V10h1.6v8.9l6.8-5.1h1.8l-4.9 3.8 5.1 5.5h-1.8z"/>
	</symbol>
	<symbol viewBox="0 0 100 100">
        <path d="M50 99.5c27.3 0 49.5-22.2 49.5-49.5S77.3.5 50 .5.5 22.7.5 50 22.7 99.5 50 99.5z"/>
        <path fill="#fff" d="M41.1 30.5c-5.3 0-9.6 4.3-9.6 9.6V59c0 5.3 4.3 9.6 9.6 9.6H60c5.3 0 9.6-4.3 9.6-9.6V40.1c0-5.3-4.3-9.6-9.6-9.6H41.1zM59.9 72H41.1C33.9 72 28 66.2 28 59V40.1C28 32.9 33.9 27 41.1 27H60c7.1 0 13 5.9 13 13.1V59c0 7.2-5.9 13-13.1 13m-9.4-31.1c-4.7 0-8.6 3.9-8.6 8.6 0 4.7 3.9 8.6 8.6 8.6 4.7 0 8.6-3.9 8.6-8.6 0-4.7-3.8-8.6-8.6-8.6m0 20.8c-6.7 0-12.1-5.4-12.1-12.1s5.4-12.1 12.1-12.1c6.7 0 12.1 5.4 12.1 12.1s-5.4 12.1-12.1 12.1"/>
    </symbol>
    <symbol viewBox="0 0 512 640">
        <path d="M256 448l-30.2-27.2C118.7 322.4 48 258.6 48 179.1 48 114.2 97.9 64 162.4 64c36.4 0 70.7 16.7 93.6 43.9C278.9 80.7 313.2 64 349.6 64 414.1 64 464 114.2 464 179.1c0 79.5-70.7 143.3-177.8 241.7L256 448z"/>
	</symbol>
	<symbol viewBox="0 8 35 8">
	    <path fill="none" stroke="#567fab"   d="M29.656 17.11V4.326l-7.555 4.067v4.65zm-10.154 2.325c1.265 0 2.29-1.041 2.29-2.324V4.325C21.791 3.04 20.766 2 19.501 2H4.048C2.785 2 1.76 3.04 1.76 4.325V17.11c0 1.283 1.026 2.324 2.29 2.324z"/>
	</symbol>
	<symbol viewBox="0 6 22 8">
	    <path d="M9.904.01C5.694.233.112 3.134.004 9.626a9.94 9.94 0 009.9 10.387 10 10 0 100-20zm0 1.427c3.7 0 7.946 3.071 8.339 7.031H1.596a8.921 8.921 0 018.308-7.03zm.287 10.73a1.42 1.42 0 111.42-1.42 1.42 1.42 0 01-1.42 1.42zm-8.595-2.21c3.88 0 8.6.514 7.579 8.573-4.67-.705-7.847-4.545-7.579-8.573zm9.1 8.573c-.449-7.834 3.849-8.573 7.729-8.573a8.677 8.677 0 01-7.731 8.573z" fill="#567fab"/>
	</symbol>
	<symbol viewBox="0 6 22 8">
	    <path data-name="Path 1" d="M4.741 11.995a6.368 6.368 0 004.832-2.151s.18-2.308-1.526-2.993l-1.19-.565a.651.651 0 01-.084-.409"/>
	    <path data-name="Path 2" d="M4.837 11.995A6.368 6.368 0 01.005 9.844s-.18-2.308 1.526-2.993l1.19-.565a.651.651 0 00.084-.409"/>
	</symbol>
</svg>